<?xml version="1.0" encoding="UTF-8"?>
<svg id="livetype" xmlns="http://www.w3.org/2000/svg" viewBox="0 0 117.92 38.25">
  <defs>
    <style>
      .cls-1, .cls-2 {
        stroke-width: 0px;
      }

      .cls-2 {
        fill: #fff;
      }
    </style>
  </defs>
  <g>
    <path class="cls-2" d="M7.57,38.25c-.3,0-.6,0-.9-.01-.56-.02-1.22-.05-1.87-.16-.61-.11-1.15-.29-1.66-.55-.52-.26-.99-.61-1.4-1.02-.41-.41-.75-.87-1.02-1.4-.26-.5-.44-1.05-.54-1.66-.12-.67-.15-1.36-.17-1.88,0-.21-.01-.91-.01-.91V7.57s0-.69.01-.89c.01-.52.04-1.21.17-1.87.11-.61.28-1.16.54-1.66.27-.52.61-.99,1.02-1.4.41-.41.88-.76,1.4-1.02.51-.26,1.06-.44,1.65-.54C5.47.06,6.15.03,6.67.01h.9s102.77-.01,102.77-.01h.91c.51.03,1.2.06,1.86.18.6.11,1.15.28,1.67.55.51.26.98.61,1.39,1.02.41.41.75.88,1.02,1.4.26.51.43,1.05.54,1.65.12.63.15,1.28.17,1.89,0,.28,0,.59,0,.89,0,.38,0,.73,0,1.09v20.93c0,.36,0,.72,0,1.08,0,.33,0,.62,0,.93-.02.59-.06,1.24-.17,1.85-.1.61-.28,1.16-.54,1.67-.27.52-.61.99-1.02,1.39-.41.42-.88.76-1.4,1.02-.52.26-1.05.44-1.67.55-.64.12-1.3.15-1.87.16-.29,0-.6.01-.9.01h-1.08s-101.69,0-101.69,0Z"/>
    <g>
      <g>
        <path class="cls-1" d="M24.12,19.01c-.03-2.86,2.34-4.25,2.45-4.32-1.34-1.96-3.42-2.22-4.15-2.24-1.75-.18-3.44,1.04-4.33,1.04s-2.28-1.03-3.75-1c-1.9.03-3.68,1.13-4.65,2.84-2.01,3.48-.51,8.6,1.42,11.41.96,1.38,2.09,2.92,3.56,2.86,1.44-.06,1.98-.92,3.72-.92s2.23.92,3.73.89c1.55-.03,2.52-1.38,3.45-2.78,1.11-1.58,1.56-3.14,1.58-3.22-.04-.01-3.01-1.15-3.04-4.57Z"/>
        <path class="cls-1" d="M21.28,10.6c.78-.97,1.31-2.29,1.16-3.63-1.12.05-2.53.78-3.34,1.73-.72.84-1.35,2.21-1.19,3.5,1.26.09,2.56-.64,3.37-1.59Z"/>
      </g>
      <g>
        <path class="cls-1" d="M41.43,26.26h-4.73l-1.14,3.36h-2l4.48-12.42h2.08l4.48,12.42h-2.04l-1.14-3.36ZM37.19,24.72h3.75l-1.85-5.45h-.05l-1.85,5.45Z"/>
        <path class="cls-1" d="M54.29,25.09c0,2.81-1.51,4.62-3.78,4.62-1.29,0-2.31-.58-2.85-1.58h-.04v4.48h-1.86v-12.05h1.8v1.51h.03c.52-.97,1.62-1.6,2.88-1.6,2.3,0,3.81,1.82,3.81,4.62ZM52.38,25.09c0-1.83-.95-3.04-2.39-3.04s-2.38,1.23-2.38,3.04.96,3.05,2.38,3.05,2.39-1.2,2.39-3.05Z"/>
        <path class="cls-1" d="M64.25,25.09c0,2.81-1.51,4.62-3.78,4.62-1.29,0-2.31-.58-2.85-1.58h-.04v4.48h-1.86v-12.05h1.8v1.51h.03c.52-.97,1.62-1.6,2.88-1.6,2.3,0,3.81,1.82,3.81,4.62ZM62.34,25.09c0-1.83-.95-3.04-2.39-3.04s-2.38,1.23-2.38,3.04.96,3.05,2.38,3.05,2.39-1.2,2.39-3.05Z"/>
        <path class="cls-1" d="M70.84,26.16c.14,1.23,1.33,2.04,2.97,2.04s2.69-.81,2.69-1.92c0-.96-.68-1.54-2.29-1.94l-1.61-.39c-2.28-.55-3.34-1.62-3.34-3.35,0-2.14,1.87-3.61,4.52-3.61s4.42,1.47,4.48,3.61h-1.88c-.11-1.24-1.14-1.99-2.63-1.99s-2.52.76-2.52,1.86c0,.88.65,1.39,2.25,1.79l1.37.34c2.55.6,3.61,1.63,3.61,3.44,0,2.32-1.85,3.78-4.79,3.78-2.75,0-4.61-1.42-4.73-3.67h1.9Z"/>
        <path class="cls-1" d="M82.47,18.42v2.14h1.72v1.47h-1.72v4.99c0,.78.34,1.14,1.1,1.14.19,0,.49-.03.61-.04v1.46c-.21.05-.62.09-1.03.09-1.83,0-2.55-.69-2.55-2.44v-5.19h-1.32v-1.47h1.32v-2.14h1.87Z"/>
        <path class="cls-1" d="M85.19,25.09c0-2.85,1.68-4.64,4.29-4.64s4.29,1.79,4.29,4.64-1.66,4.64-4.29,4.64-4.29-1.78-4.29-4.64ZM91.89,25.09c0-1.95-.9-3.11-2.4-3.11s-2.4,1.16-2.4,3.11.9,3.11,2.4,3.11,2.4-1.14,2.4-3.11Z"/>
        <path class="cls-1" d="M95.31,20.57h1.77v1.54h.04c.28-1.02,1.11-1.64,2.18-1.64.27,0,.49.04.64.07v1.74c-.15-.06-.47-.11-.83-.11-1.2,0-1.94.81-1.94,2.08v5.37h-1.86v-9.05Z"/>
        <path class="cls-1" d="M108.51,26.96c-.25,1.64-1.85,2.77-3.9,2.77-2.63,0-4.27-1.76-4.27-4.6s1.64-4.68,4.19-4.68,4.08,1.72,4.08,4.47v.64h-6.39v.11c0,1.55.97,2.56,2.44,2.56,1.03,0,1.84-.49,2.09-1.27h1.76ZM102.23,24.26h4.53c-.04-1.39-.93-2.3-2.22-2.3s-2.21.93-2.31,2.3Z"/>
      </g>
    </g>
  </g>
  <g>
    <path class="cls-1" d="M36.95,7.86c1.77,0,2.81,1.09,2.81,2.96s-1.03,3-2.81,3h-2.16v-5.97h2.16ZM35.72,12.98h1.12c1.25,0,1.97-.78,1.97-2.15s-.73-2.13-1.97-2.13h-1.12v4.28Z"/>
    <path class="cls-1" d="M40.81,11.57c0-1.45.81-2.34,2.12-2.34s2.12.88,2.12,2.34-.81,2.34-2.12,2.34-2.12-.88-2.12-2.34ZM44.14,11.57c0-.98-.44-1.55-1.21-1.55s-1.21.57-1.21,1.55.43,1.55,1.21,1.55,1.21-.57,1.21-1.55Z"/>
    <path class="cls-1" d="M50.7,13.82h-.92l-.93-3.32h-.07l-.93,3.32h-.91l-1.24-4.5h.9l.81,3.44h.07l.93-3.44h.85l.93,3.44h.07l.8-3.44h.89l-1.24,4.5Z"/>
    <path class="cls-1" d="M52.98,9.32h.86v.72h.07c.22-.5.67-.8,1.34-.8,1,0,1.56.6,1.56,1.67v2.92h-.89v-2.69c0-.72-.31-1.08-.97-1.08s-1.08.44-1.08,1.14v2.63h-.89v-4.5Z"/>
    <path class="cls-1" d="M58.22,7.56h.89v6.26h-.89v-6.26Z"/>
    <path class="cls-1" d="M60.34,11.57c0-1.45.81-2.34,2.12-2.34s2.12.88,2.12,2.34-.81,2.34-2.12,2.34-2.12-.88-2.12-2.34ZM63.68,11.57c0-.98-.44-1.55-1.21-1.55s-1.21.57-1.21,1.55.43,1.55,1.21,1.55,1.21-.57,1.21-1.55Z"/>
    <path class="cls-1" d="M65.53,12.55c0-.81.6-1.28,1.67-1.34l1.22-.07v-.39c0-.48-.31-.74-.92-.74-.5,0-.84.18-.94.5h-.86c.09-.77.82-1.27,1.84-1.27,1.13,0,1.77.56,1.77,1.51v3.08h-.86v-.63h-.07c-.27.45-.76.71-1.35.71-.87,0-1.5-.52-1.5-1.35ZM68.42,12.16v-.38l-1.1.07c-.62.04-.9.25-.9.65s.35.64.83.64c.67,0,1.17-.43,1.17-.98Z"/>
    <path class="cls-1" d="M70.48,11.57c0-1.42.73-2.32,1.87-2.32.62,0,1.14.29,1.38.79h.07v-2.47h.89v6.26h-.85v-.71h-.07c-.27.49-.79.79-1.41.79-1.15,0-1.87-.9-1.87-2.33ZM71.39,11.57c0,.96.45,1.53,1.2,1.53s1.21-.58,1.21-1.53-.47-1.53-1.21-1.53-1.2.58-1.2,1.53Z"/>
    <path class="cls-1" d="M78.36,11.57c0-1.45.81-2.34,2.12-2.34s2.12.88,2.12,2.34-.81,2.34-2.12,2.34-2.12-.88-2.12-2.34ZM81.69,11.57c0-.98-.44-1.55-1.21-1.55s-1.21.57-1.21,1.55.43,1.55,1.21,1.55,1.21-.57,1.21-1.55Z"/>
    <path class="cls-1" d="M83.8,9.32h.86v.72h.07c.22-.5.67-.8,1.34-.8,1,0,1.56.6,1.56,1.67v2.92h-.89v-2.69c0-.72-.31-1.08-.97-1.08s-1.08.44-1.08,1.14v2.63h-.89v-4.5Z"/>
    <path class="cls-1" d="M92.64,8.2v1.14h.98v.75h-.98v2.32c0,.47.19.68.64.68.14,0,.21,0,.34-.02v.74c-.14.02-.31.05-.48.05-.99,0-1.38-.35-1.38-1.22v-2.54h-.71v-.75h.71v-1.14h.89Z"/>
    <path class="cls-1" d="M94.83,7.56h.88v2.48h.07c.22-.5.69-.81,1.37-.81.96,0,1.55.61,1.55,1.68v2.91h-.89v-2.69c0-.72-.33-1.08-.96-1.08-.73,0-1.13.46-1.13,1.14v2.63h-.89v-6.26Z"/>
    <path class="cls-1" d="M103.89,12.61c-.2.81-.92,1.3-1.95,1.3-1.29,0-2.08-.88-2.08-2.32s.81-2.35,2.08-2.35,2.01.86,2.01,2.27v.31h-3.18v.05c.03.79.49,1.29,1.2,1.29.54,0,.91-.19,1.07-.55h.86ZM100.76,11.16h2.27c-.02-.71-.45-1.17-1.11-1.17s-1.12.46-1.17,1.17Z"/>
  </g>
</svg>